PathFileType        4      (X/Y/Z)      C:\Users\ibrah\OneDrive - KTH\Model Validation - Orthoload\rmr-solver-1.0 - original\rmr-solver-1.0\ExperimentalData\S8R\trc\transformed_MSffkg1.trc         
DataRate	CameraRate	NumFrames	NumMarkers	Units	OrigDataRate	OrigDataStartFrame	OrigNumFrames
50.0	50.0	5	27	mm	50.0	71	566
Frame#	Time	IJ			PX			C7			T8			SC			AA			TS			AI			PC			ACv			ACd			GH			EM			EL			EM2			EL2			US			RS			US2			RS2			MCP2			MCP5			SCREWAA			SCREWTS			SCREWAI			ACvloc			ACdloc			
		X1	Y1	Z1	X2	Y2	Z2	X3	Y3	Z3	X4	Y4	Z4	X5	Y5	Z5	X6	Y6	Z6	X7	Y7	Z7	X8	Y8	Z8	X9	Y9	Z9	X10	Y10	Z10	X11	Y11	Z11	X12	Y12	Z12	X13	Y13	Z13	X14	Y14	Z14	X15	Y15	Z15	X16	Y16	Z16	X17	Y17	Z17	X18	Y18	Z18	X19	Y19	Z19	X20	Y20	Z20	X21	Y21	Z21	X22	Y22	Z22	X23	Y23	Z23	X24	Y24	Z24	X25	Y25	Z25	X26	Y26	Z26	X27	Y27	Z27	
71	1.4	-51.72759890656425	4.081574446097158	-2.476689435535385	0.5361203445558139	-135.6979673462624	-0.1359132758392821	-181.0667396388457	91.13413976424035	3.000940488168365	-248.8584767751796	-109.0769346848819	10.22423651978017	-56.91531536138401	13.8594918250651	21.70656182425717	-140.7862020746225	30.17365059605581	190.2522492775018	-207.7459992546317	3.0356592323326	121.9824543531057	-172.0456201686826	-159.2653245361281	121.7952218906051	-89.87016298949317	44.63428714209937	125.0909709289959	-134.3118185624444	65.39961512087227	163.6928526484556	-134.3118185624444	65.39961512087227	163.6928526484556	-108.3264718710483	-22.55571657623875	183.7477196029183	123.3641296293406	-192.8728806613576	222.1539114810261	125.7700382477287	-156.0656509217515	283.8899413938126													342.8073927199256	-206.1218530973075	295.7505180811415	327.6295648476035	-246.8392199689541	334.948101224665																						
72	1.42	-54.22649690337916	5.00277928302993	-2.47653302646175	-1.00979938626377	-134.4244531860535	0.07532037270194178	-184.1458159427909	91.20100088668237	3.13417392338586	-250.5701611396221	-109.4572970910749	11.0496278774051	-59.41492658825292	14.80735630961666	21.69632267010707	-143.2835157289973	32.18230455979196	189.7579764895143	-210.0842737324815	2.980266850857971	122.1966696167684	-171.2751058511286	-158.6110260996522	123.6512881261129	-93.01452456275888	46.84146760292336	124.1541568917107	-137.6332777896856	67.21212501214211	162.7664366501799	-137.6332777896856	67.21212501214211	162.7664366501799	-109.2178535672902	-19.77670224040824	183.4734653106259	129.3580879181631	-180.167457513719	222.3119039291469	130.504967061998	-142.7927366668911	283.7380150660268													349.7517564788989	-182.2729455081794	294.9441360881962	336.676796038035	-223.5486510685382	334.3209340785218																						
73	1.44	-56.74179274932872	5.995880580667917	-2.488348924003432	-2.49399676258125	-133.0382752851979	0.2686142199829065	-187.2842006017628	91.2578292517346	3.245467207525815	-252.2195897374148	-109.8721827450973	11.82446183381838	-61.94091892540816	15.82166600462578	21.67393670656713	-145.8455123669661	34.15480451972002	189.2373049532512	-212.4590342419039	2.86462486544138	122.4389325271996	-170.5193310510962	-157.9285382421314	125.555849293195	-96.25368996682687	48.97841643566714	123.1703526487491	-141.0323640793911	68.9578998091218	161.8058086752944	-141.0323640793911	68.9578998091218	161.8058086752944	-110.2017261928789	-16.9088993367124	183.2428908631678	134.8525392723023	-167.1688504247646	222.3717871373073	134.7335765804633	-129.2636674794931	283.4804647686251													355.6968766625778	-158.1503033832657	294.0120808040852	344.7325565676243	-199.8696747489617	333.5703172253245																						
74	1.46	-59.27210263593517	7.06181885396366	-2.521315046785032	-3.912396068237808	-131.5340103592289	0.4338116131854185	-190.4801874839866	91.2997164405152	3.32481719963411	-253.7981517158496	-110.3245233551847	12.53522174032469	-64.49245884742511	16.90276461306329	21.6302605350098	-148.4555379935409	36.08626449102191	188.6893632499946	-214.8467026563346	2.690196618945896	122.701655794926	-169.7560162595043	-157.2127204279043	127.4912494372497	-99.56563059637266	51.04539087489015	122.1434036382899	-144.4898962039873	70.6334885631329	160.8132939924486	-144.4898962039873	70.6334885631329	160.8132939924486	-111.2841078397187	-13.96211532928934	183.058406791385	139.8142215690722	-153.944574965962	222.3514502276867	138.428124273563	-115.5397756109323	283.1325731941317													360.619461458174	-133.8513410754952	292.9735361077863	351.7656149124284	-175.8979429333241	332.7174009868244																						
75	1.48	-61.81396348142025	8.199598617210928	-2.582382197492326	-5.26007173965889	-129.908649856443	0.5616370539073835	-193.7290894083143	91.32092504474409	3.366402984487256	-255.295903864788	-110.817544857199	13.17228911424675	-67.0662082652542	18.04899794034466	21.55849827842367	-151.0954217336206	37.97349761782111	188.11371267602	-217.2203302140651	2.460687479901825	122.9747747668671	-168.9595357335399	-156.4567709475807	129.4374225548472	-102.9246967829186	53.04552838435043	121.0792815517542	-147.9843336871881	72.23769354560184	159.7920446047262	-147.9843336871881	72.23769354560184	159.7920446047262	-112.4688990994124	-10.94874885062331	182.9200359048938	144.2179939744484	-140.5622524704183	222.2714671580534	141.5676310522259	-101.6825944138939	282.7121276980124													364.5041879079336	-109.470169193685	291.8502236240162	357.7534771238157	-151.727456845273	331.7851924056043																						
